<svg width="375" height="76" viewBox="0 0 375 76" fill="none" xmlns="http://www.w3.org/2000/svg">
<rect width="375" height="76" fill="#F5F5F5"/>
<g clip-path="url(#clip0_0_1)">
<rect y="-724" width="375" height="800" rx="10" fill="#FCFCFC"/>
<rect width="375" height="76" fill="white"/>
<g filter="url(#filter0_d_0_1)">
<circle cx="187.5" cy="6.5" r="31.5" fill="url(#paint0_linear_0_1)"/>
<path d="M193.279 13.2792L197.16 17.16M196.04 6.55206C196.04 11.8277 191.777 16.1041 186.521 16.1041C181.263 16.1041 177 11.8277 177 6.55332C177 1.27518 181.263 -3 186.519 -3C191.777 -3 196.04 1.27644 196.04 6.55206Z" stroke="white" stroke-width="1.5" stroke-linecap="round" stroke-linejoin="round"/>
</g>
<path d="M50.2179 32.6138C50.2179 32.3389 50.1087 32.0751 49.9142 31.8807C49.7198 31.6863 49.4561 31.577 49.1811 31.577C48.9061 31.577 48.6424 31.6863 48.448 31.8807C48.2535 32.0751 48.1443 32.3389 48.1443 32.6138H50.2179ZM30.8643 32.6138C30.8643 32.3389 30.755 32.0751 30.5606 31.8807C30.3662 31.6863 30.1024 31.577 29.8275 31.577C29.5525 31.577 29.2888 31.6863 29.0943 31.8807C28.8999 32.0751 28.7907 32.3389 28.7907 32.6138H30.8643ZM51.2132 36.1113C51.3082 36.2132 51.4226 36.2949 51.5498 36.3516C51.677 36.4082 51.8143 36.4387 51.9535 36.4411C52.0927 36.4436 52.231 36.418 52.3601 36.3658C52.4892 36.3137 52.6065 36.2361 52.7049 36.1376C52.8034 36.0392 52.881 35.9219 52.9331 35.7928C52.9853 35.6637 53.0109 35.5254 53.0084 35.3862C53.006 35.247 52.9755 35.1097 52.9188 34.9825C52.8622 34.8553 52.7805 34.7409 52.6786 34.646L51.2132 36.1113ZM39.5043 22.937L40.237 22.2043C40.0426 22.0102 39.779 21.9011 39.5043 21.9011C39.2295 21.9011 38.966 22.0102 38.7716 22.2043L39.5043 22.937ZM26.33 34.646C26.2281 34.7409 26.1464 34.8553 26.0898 34.9825C26.0331 35.1097 26.0026 35.247 26.0002 35.3862C25.9977 35.5254 26.0233 35.6637 26.0755 35.7928C26.1276 35.9219 26.2052 36.0392 26.3037 36.1376C26.4021 36.2361 26.5194 36.3137 26.6485 36.3658C26.7776 36.418 26.9159 36.4436 27.0551 36.4411C27.1943 36.4387 27.3316 36.4082 27.4588 36.3516C27.586 36.2949 27.7004 36.2132 27.7953 36.1113L26.33 34.646ZM32.5923 48.8571H46.4163V46.7835H32.5923V48.8571ZM50.2179 45.0555V32.6138H48.1443V45.0555H50.2179ZM30.8643 45.0555V32.6138H28.7907V45.0555H30.8643ZM52.6786 34.646L40.237 22.2043L38.7716 23.6697L51.2132 36.1113L52.6786 34.646ZM38.7716 22.2043L26.33 34.646L27.7953 36.1113L40.237 23.6697L38.7716 22.2043ZM46.4163 48.8571C47.4246 48.8571 48.3915 48.4565 49.1045 47.7436C49.8174 47.0307 50.2179 46.0637 50.2179 45.0555H48.1443C48.1443 46.0093 47.3702 46.7835 46.4163 46.7835V48.8571ZM32.5923 46.7835C31.6384 46.7835 30.8643 46.0093 30.8643 45.0555H28.7907C28.7907 46.0637 29.1912 47.0307 29.9041 47.7436C30.6171 48.4565 31.584 48.8571 32.5923 48.8571V46.7835Z" fill="#7F7F7F"/>
<path d="M325.882 43.6732C325.882 42.2066 326.464 40.8001 327.501 39.7631C328.538 38.7261 329.945 38.1436 331.411 38.1436H342.471C343.937 38.1436 345.344 38.7261 346.381 39.7631C347.418 40.8001 348 42.2066 348 43.6732C348 44.4064 347.709 45.1097 347.19 45.6282C346.672 46.1467 345.969 46.438 345.235 46.438H328.647C327.913 46.438 327.21 46.1467 326.692 45.6282C326.173 45.1097 325.882 44.4064 325.882 43.6732Z" stroke="#7F7F7F" stroke-width="2" stroke-linejoin="round"/>
<path d="M336.941 32.6138C339.231 32.6138 341.088 30.757 341.088 28.4665C341.088 26.1761 339.231 24.3193 336.941 24.3193C334.65 24.3193 332.794 26.1761 332.794 28.4665C332.794 30.757 334.65 32.6138 336.941 32.6138Z" stroke="#7F7F7F" stroke-width="2"/>
<path fill-rule="evenodd" clip-rule="evenodd" d="M261.332 24.9738C261.701 23.1628 263.313 21.8813 265.158 21.8813H269.676C271.521 21.8813 273.132 23.1628 273.502 24.9738C273.543 25.1732 273.65 25.3531 273.805 25.4845C273.961 25.6159 274.156 25.6911 274.36 25.6982H274.405C276.345 25.7839 277.835 26.0216 279.079 26.8386C279.863 27.3529 280.537 28.0137 281.063 28.7865C281.717 29.7458 282.004 30.849 282.142 32.1816C282.278 33.4852 282.278 35.1179 282.278 37.1859V37.3034C282.278 39.3715 282.278 41.0055 282.142 42.3077C282.004 43.6404 281.717 44.7435 281.063 45.7043C280.536 46.4775 279.862 47.1394 279.079 47.6521C278.107 48.2894 276.992 48.5714 275.64 48.7055C274.315 48.8382 272.655 48.8382 270.545 48.8382H264.289C262.179 48.8382 260.519 48.8382 259.195 48.7055C257.843 48.5714 256.727 48.2908 255.755 47.6521C254.972 47.139 254.298 46.4766 253.771 45.7029C253.118 44.7435 252.83 43.6404 252.692 42.3077C252.556 41.0055 252.556 39.3715 252.556 37.3034V37.1859C252.556 35.1179 252.556 33.4852 252.692 32.1816C252.83 30.849 253.118 29.7458 253.771 28.7865C254.298 28.0127 254.972 27.3504 255.755 26.8373C256.999 26.0216 258.49 25.7839 260.429 25.6995L260.453 25.6982H260.475C260.678 25.6911 260.873 25.6159 261.029 25.4845C261.184 25.3531 261.291 25.1732 261.332 24.9738ZM265.158 23.955C264.274 23.955 263.531 24.5674 263.364 25.3871C263.094 26.7142 261.917 27.7593 260.5 27.7718C258.636 27.8547 257.638 28.0828 256.891 28.5722C256.337 28.9361 255.859 29.4053 255.486 29.9532C255.104 30.5131 254.875 31.2305 254.753 32.3959C254.631 33.5792 254.63 35.1054 254.63 37.2454C254.63 39.3853 254.63 40.9101 254.754 42.0935C254.875 43.2588 255.104 43.9763 255.487 44.5376C255.857 45.0822 256.334 45.5522 256.893 45.9186C257.469 46.296 258.208 46.5241 259.401 46.643C260.609 46.7632 262.165 46.7646 264.345 46.7646H270.489C272.667 46.7646 274.224 46.7646 275.434 46.643C276.627 46.5241 277.365 46.2974 277.941 45.9186C278.5 45.5522 278.978 45.0822 279.349 44.5362C279.73 43.9763 279.96 43.2588 280.081 42.0935C280.203 40.9101 280.204 39.384 280.204 37.2454C280.204 35.1054 280.204 33.5792 280.08 32.3959C279.96 31.2305 279.73 30.5131 279.347 29.9532C278.974 29.4045 278.496 28.9348 277.941 28.5708C277.198 28.0828 276.2 27.8547 274.333 27.7718C272.918 27.7579 271.74 26.7156 271.47 25.3871C271.382 24.9783 271.155 24.6125 270.828 24.3516C270.501 24.0907 270.094 23.9506 269.676 23.955H265.158ZM267.417 33.6318C266.592 33.6318 265.801 33.9595 265.218 34.5428C264.634 35.1261 264.307 35.9172 264.307 36.7422C264.307 37.5671 264.634 38.3583 265.218 38.9416C265.801 39.5249 266.592 39.8526 267.417 39.8526C268.242 39.8526 269.033 39.5249 269.616 38.9416C270.2 38.3583 270.528 37.5671 270.528 36.7422C270.528 35.9172 270.2 35.1261 269.616 34.5428C269.033 33.9595 268.242 33.6318 267.417 33.6318ZM262.233 36.7422C262.233 35.3673 262.779 34.0487 263.751 33.0765C264.724 32.1043 266.042 31.5582 267.417 31.5582C268.792 31.5582 270.111 32.1043 271.083 33.0765C272.055 34.0487 272.601 35.3673 272.601 36.7422C272.601 38.1171 272.055 39.4356 271.083 40.4078C270.111 41.38 268.792 41.9262 267.417 41.9262C266.042 41.9262 264.724 41.38 263.751 40.4078C262.779 39.4356 262.233 38.1171 262.233 36.7422ZM274.675 32.595C274.675 32.32 274.784 32.0563 274.978 31.8618C275.173 31.6674 275.437 31.5582 275.712 31.5582H277.094C277.369 31.5582 277.633 31.6674 277.827 31.8618C278.021 32.0563 278.131 32.32 278.131 32.595C278.131 32.8699 278.021 33.1337 277.827 33.3281C277.633 33.5225 277.369 33.6318 277.094 33.6318H275.712C275.437 33.6318 275.173 33.5225 274.978 33.3281C274.784 33.1337 274.675 32.8699 274.675 32.595Z" fill="#7F7F7F"/>
<path d="M119.453 33.6318V35.7054C119.453 42.222 119.453 45.4804 117.428 47.5042C115.405 49.5294 112.145 49.5294 105.629 49.5294C99.1121 49.5294 95.8538 49.5294 93.8286 47.5042C91.8047 45.4817 91.8047 42.222 91.8047 35.7054C91.8047 29.1887 91.8047 25.9304 93.8286 23.9052C95.8552 21.8813 99.1121 21.8813 105.629 21.8813H107.702" stroke="#829DFF" stroke-width="1.4101" stroke-linecap="round"/>
<path d="M98.7167 38.4696L101.201 35.4891C102.185 34.3071 102.677 33.7169 103.324 33.7169C103.973 33.7169 104.465 34.3071 105.449 35.4891L105.808 35.9204C106.793 37.1024 107.285 37.6926 107.933 37.6926C108.58 37.6926 109.072 37.1024 110.057 35.9204L112.541 32.9399" stroke="#829DFF" stroke-width="1.4101" stroke-linecap="round"/>
<path d="M115.306 30.1758C117.596 30.1758 119.453 28.319 119.453 26.0286C119.453 23.7381 117.596 21.8813 115.306 21.8813C113.015 21.8813 111.158 23.7381 111.158 26.0286C111.158 28.319 113.015 30.1758 115.306 30.1758Z" stroke="#829DFF" stroke-width="1.4101"/>
</g>
<defs>
<filter id="filter0_d_0_1" x="149.5" y="-27.5" width="76" height="76" filterUnits="userSpaceOnUse" color-interpolation-filters="sRGB">
<feFlood flood-opacity="0" result="BackgroundImageFix"/>
<feColorMatrix in="SourceAlpha" type="matrix" values="0 0 0 0 0 0 0 0 0 0 0 0 0 0 0 0 0 0 127 0" result="hardAlpha"/>
<feOffset dy="4"/>
<feGaussianBlur stdDeviation="3.25"/>
<feComposite in2="hardAlpha" operator="out"/>
<feColorMatrix type="matrix" values="0 0 0 0 0 0 0 0 0 0 0 0 0 0 0 0 0 0 0.15 0"/>
<feBlend mode="normal" in2="BackgroundImageFix" result="effect1_dropShadow_0_1"/>
<feBlend mode="normal" in="SourceGraphic" in2="effect1_dropShadow_0_1" result="shape"/>
</filter>
<linearGradient id="paint0_linear_0_1" x1="156" y1="5.45" x2="219" y2="6.5" gradientUnits="userSpaceOnUse">
<stop stop-color="#DEE5FF"/>
<stop offset="1" stop-color="#809AFF"/>
</linearGradient>
<clipPath id="clip0_0_1">
<rect y="-724" width="375" height="800" rx="10" fill="white"/>
</clipPath>
</defs>
</svg>
