<svg width="343" height="50" viewBox="0 0 343 50" fill="none" xmlns="http://www.w3.org/2000/svg">
<rect width="343" height="50" fill="#F5F5F5"/>
<rect x="-16" y="-574" width="375" height="800" rx="10" fill="#FCFCFC"/>
<rect width="343" height="50" rx="12" fill="url(#paint0_linear_0_1)"/>
<path d="M101.797 31.16C100.944 31.16 100.149 31.0213 99.4134 30.744C98.688 30.456 98.0534 30.056 97.5094 29.544C96.976 29.0213 96.56 28.408 96.2614 27.704C95.9627 27 95.8134 26.232 95.8134 25.4C95.8134 24.568 95.9627 23.8 96.2614 23.096C96.56 22.392 96.9814 21.784 97.5254 21.272C98.0694 20.7493 98.704 20.3493 99.4294 20.072C100.155 19.784 100.949 19.64 101.813 19.64C102.731 19.64 103.568 19.8 104.325 20.12C105.083 20.4293 105.723 20.8933 106.245 21.512L104.901 22.776C104.496 22.3387 104.043 22.0133 103.541 21.8C103.04 21.576 102.496 21.464 101.909 21.464C101.323 21.464 100.784 21.56 100.293 21.752C99.8134 21.944 99.392 22.216 99.0294 22.568C98.6774 22.92 98.4 23.336 98.1974 23.816C98.0054 24.296 97.9094 24.824 97.9094 25.4C97.9094 25.976 98.0054 26.504 98.1974 26.984C98.4 27.464 98.6774 27.88 99.0294 28.232C99.392 28.584 99.8134 28.856 100.293 29.048C100.784 29.24 101.323 29.336 101.909 29.336C102.496 29.336 103.04 29.2293 103.541 29.016C104.043 28.792 104.496 28.456 104.901 28.008L106.245 29.288C105.723 29.896 105.083 30.36 104.325 30.68C103.568 31 102.725 31.16 101.797 31.16ZM108.046 31V22.456H109.95V24.808L109.726 24.12C109.982 23.544 110.382 23.1067 110.926 22.808C111.481 22.5093 112.169 22.36 112.99 22.36V24.264C112.905 24.2427 112.825 24.232 112.75 24.232C112.676 24.2213 112.601 24.216 112.526 24.216C111.769 24.216 111.166 24.44 110.718 24.888C110.27 25.3253 110.046 25.9813 110.046 26.856V31H108.046ZM118.625 31.112C117.676 31.112 116.844 30.9253 116.129 30.552C115.425 30.168 114.876 29.6453 114.481 28.984C114.097 28.3227 113.905 27.5707 113.905 26.728C113.905 25.8747 114.092 25.1227 114.465 24.472C114.849 23.8107 115.372 23.2933 116.033 22.92C116.705 22.5467 117.468 22.36 118.321 22.36C119.153 22.36 119.894 22.5413 120.545 22.904C121.196 23.2667 121.708 23.7787 122.081 24.44C122.454 25.1013 122.641 25.88 122.641 26.776C122.641 26.8613 122.636 26.9573 122.625 27.064C122.625 27.1707 122.62 27.272 122.609 27.368H115.489V26.04H121.553L120.769 26.456C120.78 25.9653 120.678 25.5333 120.465 25.16C120.252 24.7867 119.958 24.4933 119.585 24.28C119.222 24.0667 118.801 23.96 118.321 23.96C117.83 23.96 117.398 24.0667 117.025 24.28C116.662 24.4933 116.374 24.792 116.161 25.176C115.958 25.5493 115.857 25.992 115.857 26.504V26.824C115.857 27.336 115.974 27.7893 116.209 28.184C116.444 28.5787 116.774 28.8827 117.201 29.096C117.628 29.3093 118.118 29.416 118.673 29.416C119.153 29.416 119.585 29.3413 119.969 29.192C120.353 29.0427 120.694 28.808 120.993 28.488L122.065 29.72C121.681 30.168 121.196 30.5147 120.609 30.76C120.033 30.9947 119.372 31.112 118.625 31.112ZM129.592 31V29.272L129.48 28.904V25.88C129.48 25.2933 129.304 24.84 128.952 24.52C128.6 24.1893 128.066 24.024 127.352 24.024C126.872 24.024 126.397 24.0987 125.928 24.248C125.469 24.3973 125.08 24.6053 124.76 24.872L123.976 23.416C124.434 23.064 124.978 22.8027 125.608 22.632C126.248 22.4507 126.909 22.36 127.592 22.36C128.829 22.36 129.784 22.6587 130.456 23.256C131.138 23.8427 131.48 24.7547 131.48 25.992V31H129.592ZM126.904 31.112C126.264 31.112 125.704 31.0053 125.224 30.792C124.744 30.568 124.37 30.264 124.104 29.88C123.848 29.4853 123.72 29.0427 123.72 28.552C123.72 28.072 123.832 27.64 124.056 27.256C124.29 26.872 124.669 26.568 125.192 26.344C125.714 26.12 126.408 26.008 127.272 26.008H129.752V27.336H127.416C126.733 27.336 126.274 27.448 126.04 27.672C125.805 27.8853 125.688 28.152 125.688 28.472C125.688 28.8347 125.832 29.1227 126.12 29.336C126.408 29.5493 126.808 29.656 127.32 29.656C127.81 29.656 128.248 29.544 128.632 29.32C129.026 29.096 129.309 28.7653 129.48 28.328L129.816 29.528C129.624 30.0293 129.277 30.4187 128.776 30.696C128.285 30.9733 127.661 31.112 126.904 31.112ZM137.262 31.112C136.324 31.112 135.598 30.872 135.086 30.392C134.574 29.9013 134.318 29.1813 134.318 28.232V20.568H136.318V28.184C136.318 28.5893 136.42 28.904 136.622 29.128C136.836 29.352 137.129 29.464 137.502 29.464C137.95 29.464 138.324 29.3467 138.622 29.112L139.182 30.536C138.948 30.728 138.66 30.872 138.318 30.968C137.977 31.064 137.625 31.112 137.262 31.112ZM132.91 24.12V22.52H138.606V24.12H132.91ZM144.562 31.112C143.613 31.112 142.781 30.9253 142.066 30.552C141.362 30.168 140.813 29.6453 140.418 28.984C140.034 28.3227 139.842 27.5707 139.842 26.728C139.842 25.8747 140.029 25.1227 140.402 24.472C140.786 23.8107 141.309 23.2933 141.97 22.92C142.642 22.5467 143.405 22.36 144.258 22.36C145.09 22.36 145.832 22.5413 146.482 22.904C147.133 23.2667 147.645 23.7787 148.018 24.44C148.392 25.1013 148.578 25.88 148.578 26.776C148.578 26.8613 148.573 26.9573 148.562 27.064C148.562 27.1707 148.557 27.272 148.546 27.368H141.426V26.04H147.49L146.706 26.456C146.717 25.9653 146.616 25.5333 146.402 25.16C146.189 24.7867 145.896 24.4933 145.522 24.28C145.16 24.0667 144.738 23.96 144.258 23.96C143.768 23.96 143.336 24.0667 142.962 24.28C142.6 24.4933 142.312 24.792 142.098 25.176C141.896 25.5493 141.794 25.992 141.794 26.504V26.824C141.794 27.336 141.912 27.7893 142.146 28.184C142.381 28.5787 142.712 28.8827 143.138 29.096C143.565 29.3093 144.056 29.416 144.61 29.416C145.09 29.416 145.522 29.3413 145.906 29.192C146.29 29.0427 146.632 28.808 146.93 28.488L148.002 29.72C147.618 30.168 147.133 30.5147 146.546 30.76C145.97 30.9947 145.309 31.112 144.562 31.112ZM160.185 31V29.272L160.073 28.904V25.88C160.073 25.2933 159.897 24.84 159.545 24.52C159.193 24.1893 158.66 24.024 157.945 24.024C157.465 24.024 156.991 24.0987 156.521 24.248C156.063 24.3973 155.673 24.6053 155.353 24.872L154.569 23.416C155.028 23.064 155.572 22.8027 156.201 22.632C156.841 22.4507 157.503 22.36 158.185 22.36C159.423 22.36 160.377 22.6587 161.049 23.256C161.732 23.8427 162.073 24.7547 162.073 25.992V31H160.185ZM157.497 31.112C156.857 31.112 156.297 31.0053 155.817 30.792C155.337 30.568 154.964 30.264 154.697 29.88C154.441 29.4853 154.313 29.0427 154.313 28.552C154.313 28.072 154.425 27.64 154.649 27.256C154.884 26.872 155.263 26.568 155.785 26.344C156.308 26.12 157.001 26.008 157.865 26.008H160.345V27.336H158.009C157.327 27.336 156.868 27.448 156.633 27.672C156.399 27.8853 156.281 28.152 156.281 28.472C156.281 28.8347 156.425 29.1227 156.713 29.336C157.001 29.5493 157.401 29.656 157.913 29.656C158.404 29.656 158.841 29.544 159.225 29.32C159.62 29.096 159.903 28.7653 160.073 28.328L160.409 29.528C160.217 30.0293 159.871 30.4187 159.369 30.696C158.879 30.9733 158.255 31.112 157.497 31.112ZM169.488 22.36C170.171 22.36 170.779 22.4933 171.312 22.76C171.856 23.0267 172.283 23.4373 172.592 23.992C172.901 24.536 173.056 25.24 173.056 26.104V31H171.056V26.36C171.056 25.6027 170.875 25.0373 170.512 24.664C170.16 24.2907 169.664 24.104 169.024 24.104C168.555 24.104 168.139 24.2 167.776 24.392C167.413 24.584 167.131 24.872 166.928 25.256C166.736 25.6293 166.64 26.104 166.64 26.68V31H164.64V22.456H166.544V24.76L166.208 24.056C166.507 23.512 166.939 23.096 167.504 22.808C168.08 22.5093 168.741 22.36 169.488 22.36ZM178.623 31L183.663 19.8H185.711L190.767 31H188.591L184.255 20.904H185.087L180.767 31H178.623ZM180.943 28.408L181.503 26.776H187.551L188.111 28.408H180.943ZM195.841 31.112C194.945 31.112 194.145 30.9253 193.441 30.552C192.748 30.168 192.204 29.6453 191.809 28.984C191.415 28.3227 191.217 27.5707 191.217 26.728C191.217 25.8747 191.415 25.1227 191.809 24.472C192.204 23.8107 192.748 23.2933 193.441 22.92C194.145 22.5467 194.945 22.36 195.841 22.36C196.673 22.36 197.404 22.5307 198.033 22.872C198.673 23.2027 199.159 23.6933 199.489 24.344L197.953 25.24C197.697 24.8347 197.383 24.536 197.009 24.344C196.647 24.152 196.252 24.056 195.825 24.056C195.335 24.056 194.892 24.1627 194.497 24.376C194.103 24.5893 193.793 24.8987 193.569 25.304C193.345 25.6987 193.233 26.1733 193.233 26.728C193.233 27.2827 193.345 27.7627 193.569 28.168C193.793 28.5627 194.103 28.8667 194.497 29.08C194.892 29.2933 195.335 29.4 195.825 29.4C196.252 29.4 196.647 29.304 197.009 29.112C197.383 28.92 197.697 28.6213 197.953 28.216L199.489 29.112C199.159 29.752 198.673 30.248 198.033 30.6C197.404 30.9413 196.673 31.112 195.841 31.112ZM205.013 31.112C204.117 31.112 203.317 30.9253 202.613 30.552C201.92 30.168 201.376 29.6453 200.981 28.984C200.587 28.3227 200.389 27.5707 200.389 26.728C200.389 25.8747 200.587 25.1227 200.981 24.472C201.376 23.8107 201.92 23.2933 202.613 22.92C203.317 22.5467 204.117 22.36 205.013 22.36C205.845 22.36 206.576 22.5307 207.205 22.872C207.845 23.2027 208.331 23.6933 208.661 24.344L207.125 25.24C206.869 24.8347 206.555 24.536 206.181 24.344C205.819 24.152 205.424 24.056 204.997 24.056C204.507 24.056 204.064 24.1627 203.669 24.376C203.275 24.5893 202.965 24.8987 202.741 25.304C202.517 25.6987 202.405 26.1733 202.405 26.728C202.405 27.2827 202.517 27.7627 202.741 28.168C202.965 28.5627 203.275 28.8667 203.669 29.08C204.064 29.2933 204.507 29.4 204.997 29.4C205.424 29.4 205.819 29.304 206.181 29.112C206.555 28.92 206.869 28.6213 207.125 28.216L208.661 29.112C208.331 29.752 207.845 30.248 207.205 30.6C206.576 30.9413 205.845 31.112 205.013 31.112ZM214.105 31.112C213.23 31.112 212.452 30.9253 211.769 30.552C211.086 30.168 210.548 29.6453 210.153 28.984C209.758 28.3227 209.561 27.5707 209.561 26.728C209.561 25.8747 209.758 25.1227 210.153 24.472C210.548 23.8107 211.086 23.2933 211.769 22.92C212.452 22.5467 213.23 22.36 214.105 22.36C214.99 22.36 215.774 22.5467 216.457 22.92C217.15 23.2933 217.689 23.8053 218.073 24.456C218.468 25.1067 218.665 25.864 218.665 26.728C218.665 27.5707 218.468 28.3227 218.073 28.984C217.689 29.6453 217.15 30.168 216.457 30.552C215.774 30.9253 214.99 31.112 214.105 31.112ZM214.105 29.4C214.596 29.4 215.033 29.2933 215.417 29.08C215.801 28.8667 216.1 28.5573 216.313 28.152C216.537 27.7467 216.649 27.272 216.649 26.728C216.649 26.1733 216.537 25.6987 216.313 25.304C216.1 24.8987 215.801 24.5893 215.417 24.376C215.033 24.1627 214.601 24.056 214.121 24.056C213.63 24.056 213.193 24.1627 212.809 24.376C212.436 24.5893 212.137 24.8987 211.913 25.304C211.689 25.6987 211.577 26.1733 211.577 26.728C211.577 27.272 211.689 27.7467 211.913 28.152C212.137 28.5573 212.436 28.8667 212.809 29.08C213.193 29.2933 213.625 29.4 214.105 29.4ZM224.194 31.112C223.468 31.112 222.828 30.9787 222.274 30.712C221.719 30.4347 221.287 30.0187 220.978 29.464C220.668 28.8987 220.514 28.1893 220.514 27.336V22.456H222.514V27.064C222.514 27.832 222.684 28.408 223.026 28.792C223.378 29.1653 223.874 29.352 224.514 29.352C224.983 29.352 225.388 29.256 225.73 29.064C226.082 28.872 226.354 28.584 226.546 28.2C226.748 27.816 226.85 27.3413 226.85 26.776V22.456H228.85V31H226.946V28.696L227.282 29.4C226.994 29.9547 226.572 30.3813 226.018 30.68C225.463 30.968 224.855 31.112 224.194 31.112ZM236.316 22.36C236.999 22.36 237.607 22.4933 238.14 22.76C238.684 23.0267 239.111 23.4373 239.42 23.992C239.73 24.536 239.884 25.24 239.884 26.104V31H237.884V26.36C237.884 25.6027 237.703 25.0373 237.34 24.664C236.988 24.2907 236.492 24.104 235.852 24.104C235.383 24.104 234.967 24.2 234.604 24.392C234.242 24.584 233.959 24.872 233.756 25.256C233.564 25.6293 233.468 26.104 233.468 26.68V31H231.468V22.456H233.372V24.76L233.036 24.056C233.335 23.512 233.767 23.096 234.332 22.808C234.908 22.5093 235.57 22.36 236.316 22.36ZM245.637 31.112C244.699 31.112 243.973 30.872 243.461 30.392C242.949 29.9013 242.693 29.1813 242.693 28.232V20.568H244.693V28.184C244.693 28.5893 244.795 28.904 244.997 29.128C245.211 29.352 245.504 29.464 245.877 29.464C246.325 29.464 246.699 29.3467 246.997 29.112L247.557 30.536C247.323 30.728 247.035 30.872 246.693 30.968C246.352 31.064 246 31.112 245.637 31.112ZM241.285 24.12V22.52H246.981V24.12H241.285Z" fill="white"/>
<defs>
<linearGradient id="paint0_linear_0_1" x1="343" y1="25.5815" x2="1.74558e-06" y2="25.5815" gradientUnits="userSpaceOnUse">
<stop stop-color="#7B91FF"/>
<stop offset="1" stop-color="#95BEFF"/>
</linearGradient>
</defs>
</svg>
