<svg width="44" height="44" viewBox="0 0 44 44" fill="none" xmlns="http://www.w3.org/2000/svg">
<rect width="44" height="44" fill="#F5F5F5"/>
<rect x="-134" y="-686" width="375" height="800" rx="10" fill="#FCFCFC"/>
<rect x="0.5" y="0.5" width="43" height="43" rx="7.5" stroke="#7F7F7F"/>
<path d="M29.3541 20.5311H28.75V20.5H22V23.5H26.2386C25.6203 25.2464 23.9586 26.5 22 26.5C19.5149 26.5 17.5 24.4851 17.5 22C17.5 19.5149 19.5149 17.5 22 17.5C23.1471 17.5 24.1908 17.9327 24.9854 18.6396L27.1068 16.5182C25.7673 15.2699 23.9755 14.5 22 14.5C17.8581 14.5 14.5 17.8581 14.5 22C14.5 26.1419 17.8581 29.5 22 29.5C26.1419 29.5 29.5 26.1419 29.5 22C29.5 21.4971 29.4482 21.0062 29.3541 20.5311Z" fill="#FFC107"/>
<path d="M15.3647 18.5091L17.8289 20.3162C18.4956 18.6655 20.1104 17.5 22 17.5C23.1471 17.5 24.1907 17.9327 24.9854 18.6396L27.1067 16.5182C25.7672 15.2699 23.9755 14.5 22 14.5C19.1192 14.5 16.621 16.1264 15.3647 18.5091Z" fill="#FF3D00"/>
<path d="M22 29.5C23.9372 29.5 25.6975 28.7586 27.0284 27.553L24.7071 25.5887C23.9288 26.1806 22.9778 26.5008 22 26.5C20.0492 26.5 18.3929 25.2561 17.7689 23.5202L15.3231 25.4046C16.5644 27.8335 19.0851 29.5 22 29.5Z" fill="#4CAF50"/>
<path d="M29.3541 20.5311H28.75V20.5H22V23.5H26.2386C25.9428 24.3312 25.41 25.0574 24.706 25.5891L24.7071 25.5884L27.0284 27.5526C26.8641 27.7019 29.5 25.75 29.5 22C29.5 21.4971 29.4482 21.0063 29.3541 20.5311Z" fill="#1976D2"/>
</svg>
