<svg width="343" height="50" viewBox="0 0 343 50" fill="none" xmlns="http://www.w3.org/2000/svg">
<rect width="343" height="50" fill="#F5F5F5"/>
<rect x="-16" y="-665" width="375" height="800" rx="10" fill="#FCFCFC"/>
<rect width="343" height="50" rx="12" fill="url(#paint0_linear_0_1)"/>
<path d="M144.688 31.16C143.835 31.16 143.04 31.0213 142.304 30.744C141.579 30.456 140.944 30.056 140.4 29.544C139.867 29.0213 139.451 28.408 139.152 27.704C138.853 27 138.704 26.232 138.704 25.4C138.704 24.568 138.853 23.8 139.152 23.096C139.451 22.392 139.872 21.784 140.416 21.272C140.96 20.7493 141.595 20.3493 142.32 20.072C143.045 19.784 143.84 19.64 144.704 19.64C145.621 19.64 146.459 19.8 147.216 20.12C147.973 20.4293 148.613 20.8933 149.136 21.512L147.792 22.776C147.387 22.3387 146.933 22.0133 146.432 21.8C145.931 21.576 145.387 21.464 144.8 21.464C144.213 21.464 143.675 21.56 143.184 21.752C142.704 21.944 142.283 22.216 141.92 22.568C141.568 22.92 141.291 23.336 141.088 23.816C140.896 24.296 140.8 24.824 140.8 25.4C140.8 25.976 140.896 26.504 141.088 26.984C141.291 27.464 141.568 27.88 141.92 28.232C142.283 28.584 142.704 28.856 143.184 29.048C143.675 29.24 144.213 29.336 144.8 29.336C145.387 29.336 145.931 29.2293 146.432 29.016C146.933 28.792 147.387 28.456 147.792 28.008L149.136 29.288C148.613 29.896 147.973 30.36 147.216 30.68C146.459 31 145.616 31.16 144.688 31.16ZM154.449 31.112C153.574 31.112 152.796 30.9253 152.113 30.552C151.43 30.168 150.892 29.6453 150.497 28.984C150.102 28.3227 149.905 27.5707 149.905 26.728C149.905 25.8747 150.102 25.1227 150.497 24.472C150.892 23.8107 151.43 23.2933 152.113 22.92C152.796 22.5467 153.574 22.36 154.449 22.36C155.334 22.36 156.118 22.5467 156.801 22.92C157.494 23.2933 158.033 23.8053 158.417 24.456C158.812 25.1067 159.009 25.864 159.009 26.728C159.009 27.5707 158.812 28.3227 158.417 28.984C158.033 29.6453 157.494 30.168 156.801 30.552C156.118 30.9253 155.334 31.112 154.449 31.112ZM154.449 29.4C154.94 29.4 155.377 29.2933 155.761 29.08C156.145 28.8667 156.444 28.5573 156.657 28.152C156.881 27.7467 156.993 27.272 156.993 26.728C156.993 26.1733 156.881 25.6987 156.657 25.304C156.444 24.8987 156.145 24.5893 155.761 24.376C155.377 24.1627 154.945 24.056 154.465 24.056C153.974 24.056 153.537 24.1627 153.153 24.376C152.78 24.5893 152.481 24.8987 152.257 25.304C152.033 25.6987 151.921 26.1733 151.921 26.728C151.921 27.272 152.033 27.7467 152.257 28.152C152.481 28.5573 152.78 28.8667 153.153 29.08C153.537 29.2933 153.969 29.4 154.449 29.4ZM165.769 22.36C166.452 22.36 167.06 22.4933 167.593 22.76C168.137 23.0267 168.564 23.4373 168.873 23.992C169.183 24.536 169.337 25.24 169.337 26.104V31H167.337V26.36C167.337 25.6027 167.156 25.0373 166.793 24.664C166.441 24.2907 165.945 24.104 165.305 24.104C164.836 24.104 164.42 24.2 164.057 24.392C163.695 24.584 163.412 24.872 163.209 25.256C163.017 25.6293 162.921 26.104 162.921 26.68V31H160.921V22.456H162.825V24.76L162.489 24.056C162.788 23.512 163.22 23.096 163.785 22.808C164.361 22.5093 165.023 22.36 165.769 22.36ZM172.147 31V21.976C172.147 21.08 172.408 20.3653 172.931 19.832C173.464 19.288 174.221 19.016 175.203 19.016C175.555 19.016 175.885 19.0533 176.195 19.128C176.515 19.2027 176.781 19.32 176.995 19.48L176.451 20.984C176.301 20.8667 176.131 20.7813 175.939 20.728C175.747 20.664 175.549 20.632 175.347 20.632C174.931 20.632 174.616 20.7493 174.403 20.984C174.189 21.208 174.083 21.5493 174.083 22.008V22.968L174.147 23.864V31H172.147ZM170.739 24.12V22.52H176.435V24.12H170.739ZM177.843 31V22.456H179.843V31H177.843ZM178.851 21.048C178.477 21.048 178.168 20.9307 177.923 20.696C177.688 20.4613 177.571 20.1787 177.571 19.848C177.571 19.5067 177.688 19.224 177.923 19C178.168 18.7653 178.477 18.648 178.851 18.648C179.224 18.648 179.528 18.76 179.763 18.984C180.008 19.1973 180.131 19.4693 180.131 19.8C180.131 20.152 180.013 20.4507 179.779 20.696C179.544 20.9307 179.235 21.048 178.851 21.048ZM182.468 31V22.456H184.372V24.808L184.148 24.12C184.404 23.544 184.804 23.1067 185.348 22.808C185.903 22.5093 186.591 22.36 187.412 22.36V24.264C187.327 24.2427 187.247 24.232 187.172 24.232C187.098 24.2213 187.023 24.216 186.948 24.216C186.191 24.216 185.588 24.44 185.14 24.888C184.692 25.3253 184.468 25.9813 184.468 26.856V31H182.468ZM199.893 22.36C200.576 22.36 201.178 22.4933 201.701 22.76C202.234 23.0267 202.65 23.4373 202.949 23.992C203.248 24.536 203.397 25.24 203.397 26.104V31H201.397V26.36C201.397 25.6027 201.232 25.0373 200.901 24.664C200.57 24.2907 200.096 24.104 199.477 24.104C199.04 24.104 198.65 24.2 198.309 24.392C197.978 24.584 197.717 24.8667 197.525 25.24C197.344 25.6133 197.253 26.088 197.253 26.664V31H195.253V26.36C195.253 25.6027 195.088 25.0373 194.757 24.664C194.426 24.2907 193.952 24.104 193.333 24.104C192.896 24.104 192.506 24.2 192.165 24.392C191.834 24.584 191.573 24.8667 191.381 25.24C191.2 25.6133 191.109 26.088 191.109 26.664V31H189.109V22.456H191.013V24.728L190.677 24.056C190.965 23.5013 191.381 23.08 191.925 22.792C192.48 22.504 193.109 22.36 193.813 22.36C194.613 22.36 195.306 22.5573 195.893 22.952C196.49 23.3467 196.885 23.944 197.077 24.744L196.293 24.472C196.57 23.832 197.029 23.32 197.669 22.936C198.309 22.552 199.05 22.36 199.893 22.36Z" fill="white"/>
<defs>
<linearGradient id="paint0_linear_0_1" x1="343" y1="25.5815" x2="1.74558e-06" y2="25.5815" gradientUnits="userSpaceOnUse">
<stop stop-color="#7B91FF"/>
<stop offset="1" stop-color="#95BEFF"/>
</linearGradient>
</defs>
</svg>
